<?xml version="1.0" encoding="utf-8"?>
<!-- Generator: Adobe Illustrator 24.3.0, SVG Export Plug-In . SVG Version: 6.00 Build 0)  -->
<svg version="1.1" id="Layer_1" xmlns="http://www.w3.org/2000/svg" xmlns:xlink="http://www.w3.org/1999/xlink" x="0px" y="0px"
	 viewBox="0 0 389 166" style="enable-background:new 0 0 389 166;" xml:space="preserve">
<style type="text/css">
	.st0{fill:#6A8F56;}
</style>
<g>
	<g>
		<path class="st0" d="M37.3,162.1v2.9H7.5v-3h0.9c5.8,0,8.4-1.2,8.4-12.9V72.2c0-6.1-7.7-6.9-14.4-6.9H1.5v-3h0.9
			c9.9,0,15.9-2.2,17.8-6.7l0.1-0.3H22v93.7c0,10.6,4.7,11.7,14.5,13.1L37.3,162.1z"/>
		<path class="st0" d="M65.7,109.7C50.5,95.7,43.2,88.4,43.2,76c0-10.4,7.6-17.4,19-17.4c10.3,0,21.3,8,21.3,30.5v0.7h2.8v-21
			l-0.1-0.2C81,60.4,71.9,55.2,62.5,55.2c-22.7,0-24.5,17.1-24.5,22.3c0,13.1,7.4,20.6,25.7,37.7c11.6,10.8,21.6,20.2,21.6,29.3
			c0,10.6-8.2,17.8-20.3,17.8c-12.1,0-24.2-13-24.2-41.9v-0.7h-3.2v27.2l0.1,0.2c6.8,12,16.4,18.7,27.1,18.7c16,0,26-8.4,26-21.9
			C90.9,133.5,81.8,124.6,65.7,109.7z"/>
		<path class="st0" d="M167.1,149.1V92.7c0-15.7-2.5-36.6-24.1-36.6c-18.1,0-28.5,18.2-33.2,29.8V1.2l-1.8,0C105.2,8,94.3,8,90.2,8
			h-0.9v3h0.9c9.7,0,14.4,2,14.4,6v132.2c0,11.7-2.6,12.9-8.4,12.9h-0.9v3h29.9v-2.9l-0.8-0.1c-9.3-1.1-14.5-2.3-14.5-13.1V96.2
			C115,80.1,124.8,61,142.3,61c17.2,0,19.6,16.7,19.6,34.7v53.6c0,11.7-2.6,12.9-8.4,12.9h-0.9v3h29.9v-2.9l-0.8-0.1
			C172.6,161,167.1,159.8,167.1,149.1z"/>
		<path class="st0" d="M219.5,162.1v2.9h-29.9v-3h0.9c5.8,0,8.4-1.2,8.4-12.9V72.2c0-6.1-7.7-6.9-14.4-6.9h-0.9v-3h0.9
			c9.9,0,15.9-2.2,17.8-6.7l0.1-0.3h1.6v93.7c0,10.6,4.7,11.7,14.5,13.1L219.5,162.1z"/>
		<path class="st0" d="M313.6,162.3v2.9h-29.9v-3h0.9c5.8,0,8.4-1.2,8.4-12.9V97.4c0-16.3-1.5-32.1-19.6-32.1
			c-18.4,0-28.2,21.6-32.5,34.5v49.1c0,10.5,5,11.7,14.5,13.1l0.8,0.1v2.9h-29.9v-3h0.9c5.8,0,8.4-1.2,8.4-12.9V71.7
			c0-6-9.7-6-14.4-6h-0.9v-3h0.9c4.1,0,15.1,0,17.8-6.7l0.3-0.8h1.5V90c4.8-11.7,15.2-30,33.2-30c16.4,0,24.1,10.9,24.1,34.4v54.7
			c0,10.7,5.5,11.9,14.5,13.1L313.6,162.3z"/>
		<path class="st0" d="M386.3,135.3l-1.3,3.3c-5.7,14.1-20.2,21.6-31.1,21.6c-21.8,0-35.8-18.5-35.8-47.2c0-6.5,0.5-12.4,1.5-17.7
			h54.9v-2.8c-0.3-12.1-4.1-32.5-25.2-32.5c-17.9,0-37.1,16.6-37.1,53c0,30.2,16.9,52.1,40.1,52.1c15.6,0,30.1-12.6,34.7-24.3
			l0.1-0.2L386.3,135.3z M346.8,65.1c9.6,0,20.8,3,22.2,26.5h-48.6C324.4,74.5,333.7,65.1,346.8,65.1z"/>
		<path class="st0" d="M61.8,15.7"/>
		<path class="st0" d="M7.5,32v3c0,0,11.1-1.6,12.8,12.5c0,0,1.7,0,1.7,0V19.8h-1.6C20.4,19.8,20.4,32.4,7.5,32z"/>
		<path class="st0" d="M204.2,32v3c0,0-11.1-1.6-12.8,12.5c0,0-1.7,0-1.7,0V19.8h1.6C191.4,19.8,191.4,32.4,204.2,32z"/>
	</g>
</g>
</svg>
